<svg width="94" height="93" viewBox="0 0 94 93" fill="none" xmlns="http://www.w3.org/2000/svg">
<path d="M42.9222 10.138C44.2108 6.65555 49.1364 6.65555 50.425 10.138L58.5945 32.2158C58.9996 33.3107 59.8629 34.1739 60.9578 34.5791L83.0356 42.7486C86.518 44.0372 86.518 48.9628 83.0356 50.2514L60.9578 58.4209C59.8629 58.8261 58.9996 59.6893 58.5945 60.7842L50.425 82.862C49.1364 86.3445 44.2108 86.3444 42.9222 82.862L34.7527 60.7842C34.3475 59.6893 33.4843 58.8261 32.3894 58.4209L10.3116 50.2514C6.82913 48.9628 6.82914 44.0372 10.3116 42.7486L32.3894 34.5791C33.4843 34.1739 34.3475 33.3107 34.7527 32.2158L42.9222 10.138Z" fill="#FF3B8B"/>
</svg>
