<svg width="53" height="52" viewBox="0 0 53 52" fill="none" xmlns="http://www.w3.org/2000/svg">
<path d="M22.4222 10.138C23.7108 6.65555 28.6364 6.65555 29.925 10.138L32.5577 17.2527C32.9628 18.3476 33.826 19.2108 34.9209 19.6159L42.0356 22.2486C45.518 23.5372 45.518 28.4628 42.0356 29.7514L34.9209 32.3841C33.826 32.7892 32.9628 33.6525 32.5577 34.7473L29.925 41.862C28.6364 45.3445 23.7108 45.3445 22.4222 41.862L19.7895 34.7473C19.3844 33.6525 18.5211 32.7892 17.4263 32.3841L10.3116 29.7514C6.82913 28.4628 6.82913 23.5372 10.3116 22.2486L17.4263 19.6159C18.5211 19.2108 19.3844 18.3476 19.7895 17.2527L22.4222 10.138Z" fill="#FF3B8B"/>
</svg>
