<svg width="39" height="38" viewBox="0 0 39 38" fill="none" xmlns="http://www.w3.org/2000/svg">
<path d="M15.4222 10.138C16.7108 6.65555 21.6364 6.65555 22.925 10.138L23.667 12.1433C24.0722 13.2382 24.9354 14.1014 26.0303 14.5066L28.0356 15.2486C31.518 16.5372 31.518 21.4628 28.0356 22.7514L26.0303 23.4934C24.9354 23.8986 24.0722 24.7618 23.667 25.8567L22.925 27.862C21.6364 31.3445 16.7108 31.3445 15.4222 27.862L14.6802 25.8567C14.275 24.7618 13.4118 23.8986 12.3169 23.4934L10.3116 22.7514C6.82913 21.4628 6.82913 16.5372 10.3116 15.2486L12.3169 14.5066C13.4118 14.1014 14.275 13.2382 14.6802 12.1433L15.4222 10.138Z" fill="#FF3B8B"/>
</svg>
