<svg width="884" height="299" viewBox="0 0 884 299" fill="none" xmlns="http://www.w3.org/2000/svg">
<rect x="2" y="2.32886" width="880" height="294" stroke="white" stroke-width="4"/>
<rect x="75.333" y="2.32886" width="73.3333" height="73.3333" stroke="white"/>
<rect x="148.667" y="2.32886" width="73.3333" height="73.3333" stroke="white"/>
<rect x="222" y="2.32886" width="73.3333" height="73.3333" stroke="white"/>
<rect x="295.333" y="2.32886" width="73.3333" height="73.3333" stroke="white"/>
<rect x="368.667" y="2.32886" width="73.3333" height="73.3333" stroke="white"/>
<rect x="442" y="2.32886" width="73.3333" height="73.3333" stroke="white"/>
<rect x="515.333" y="2.32886" width="73.3333" height="73.3333" stroke="white"/>
<rect x="588.667" y="2.32886" width="73.3333" height="73.3333" stroke="white"/>
<rect x="662" y="2.32886" width="73.3333" height="73.3333" stroke="white"/>
<rect x="75.333" y="75.6628" width="73.3333" height="73.3333" stroke="white"/>
<rect x="148.667" y="75.6628" width="73.3333" height="73.3333" stroke="white"/>
<rect x="222" y="75.6628" width="73.3333" height="73.3333" stroke="white"/>
<rect x="295.333" y="75.6628" width="73.3333" height="73.3333" stroke="white"/>
<rect x="368.667" y="75.6628" width="73.3333" height="73.3333" stroke="white"/>
<rect x="442" y="75.6628" width="73.3333" height="73.3333" stroke="white"/>
<rect x="515.333" y="75.6628" width="73.3333" height="73.3333" stroke="white"/>
<rect x="588.667" y="75.6628" width="73.3333" height="73.3333" stroke="white"/>
<rect x="662" y="75.6628" width="73.3333" height="73.3333" stroke="white"/>
<rect x="75.333" y="148.995" width="73.3333" height="73.3333" stroke="white"/>
<rect x="148.667" y="148.995" width="73.3333" height="73.3333" stroke="white"/>
<rect x="222" y="148.995" width="73.3333" height="73.3333" stroke="white"/>
<rect x="295.333" y="148.995" width="73.3333" height="73.3333" stroke="white"/>
<rect x="368.667" y="148.995" width="73.3333" height="73.3333" stroke="white"/>
<rect x="442" y="148.995" width="73.3333" height="73.3333" stroke="white"/>
<rect x="515.333" y="148.995" width="73.3333" height="73.3333" stroke="white"/>
<rect x="588.667" y="148.995" width="73.3333" height="73.3333" stroke="white"/>
<rect x="662" y="148.995" width="73.3333" height="73.3333" stroke="white"/>
<rect x="75.333" y="222.329" width="73.3333" height="73.3333" stroke="white"/>
<rect width="73" height="73" transform="matrix(-1 0 0 1 75 2.32886)" stroke="white"/>
<rect width="73" height="74" transform="matrix(-1 0 0 1 75 75.3289)" stroke="white"/>
<rect width="73" height="73" transform="matrix(-1 0 0 1 75 149.329)" stroke="white"/>
<rect width="73" height="73" transform="matrix(-1 0 0 1 75 222.329)" stroke="white"/>
<rect x="148.667" y="222.329" width="73.3333" height="73.3333" stroke="white"/>
<rect x="222" y="222.329" width="73.3333" height="73.3333" stroke="white"/>
<rect x="295.333" y="222.329" width="73.3333" height="73.3333" stroke="white"/>
<rect x="368.667" y="222.329" width="73.3333" height="73.3333" stroke="white"/>
<rect x="442" y="222.329" width="73.3333" height="73.3333" stroke="white"/>
<rect x="515.333" y="222.329" width="73.3333" height="73.3333" stroke="white"/>
<rect x="588.667" y="222.329" width="73.3333" height="73.3333" stroke="white"/>
<rect x="662" y="222.329" width="73.3333" height="73.3333" stroke="white"/>
<rect x="735.333" y="2.32886" width="73.3333" height="73.3333" stroke="white"/>
<rect x="808.667" y="2.32886" width="73.3333" height="73.3333" stroke="white"/>
<rect x="735.333" y="75.6628" width="73.3333" height="73.3333" stroke="white"/>
<rect x="808.667" y="75.6628" width="73.3333" height="73.3333" stroke="white"/>
<rect x="735.333" y="148.995" width="73.3333" height="73.3333" stroke="white"/>
<rect x="808.667" y="148.995" width="73.3333" height="73.3333" stroke="white"/>
<rect x="735.333" y="222.329" width="73.3333" height="73.3333" stroke="white"/>
<rect x="808.667" y="222.329" width="73.3333" height="73.3333" stroke="white"/>
<path d="M295 296.329L295 2" stroke="white" stroke-width="4"/>
<path d="M589 296.329L589 2" stroke="white" stroke-width="4"/>
<path d="M882 296.329L882 2" stroke="white" stroke-width="4"/>
</svg>
