<svg width="884" height="279" viewBox="0 0 884 279" fill="none" xmlns="http://www.w3.org/2000/svg">
<rect x="2" y="2.3064" width="880" height="274" stroke="white" stroke-width="4"/>
<rect x="75.333" y="2.3064" width="73.3333" height="68.3447" stroke="white"/>
<rect x="148.667" y="2.3064" width="73.3333" height="68.3447" stroke="white"/>
<rect x="222" y="2.3064" width="73.3333" height="68.3447" stroke="white"/>
<rect x="295.333" y="2.3064" width="73.3333" height="68.3447" stroke="white"/>
<rect x="368.667" y="2.3064" width="73.3333" height="68.3447" stroke="white"/>
<rect x="442" y="2.3064" width="73.3333" height="68.3447" stroke="white"/>
<rect x="515.333" y="2.3064" width="73.3333" height="68.3447" stroke="white"/>
<rect x="588.667" y="2.3064" width="73.3333" height="68.3447" stroke="white"/>
<rect x="662" y="2.3064" width="73.3333" height="68.3447" stroke="white"/>
<rect x="75.333" y="70.6517" width="73.3333" height="68.3447" stroke="white"/>
<rect x="148.667" y="70.6517" width="73.3333" height="68.3447" stroke="white"/>
<rect x="222" y="70.6517" width="73.3333" height="68.3447" stroke="white"/>
<rect x="295.333" y="70.6517" width="73.3333" height="68.3447" stroke="white"/>
<rect x="368.667" y="70.6517" width="73.3333" height="68.3447" stroke="white"/>
<rect x="442" y="70.6517" width="73.3333" height="68.3447" stroke="white"/>
<rect x="515.333" y="70.6517" width="73.3333" height="68.3447" stroke="white"/>
<rect x="588.667" y="70.6517" width="73.3333" height="68.3447" stroke="white"/>
<rect x="662" y="70.6517" width="73.3333" height="68.3447" stroke="white"/>
<rect x="75.333" y="138.995" width="73.3333" height="68.3447" stroke="white"/>
<rect x="148.667" y="138.995" width="73.3333" height="68.3447" stroke="white"/>
<rect x="222" y="138.995" width="73.3333" height="68.3447" stroke="white"/>
<rect x="295.333" y="138.995" width="73.3333" height="68.3447" stroke="white"/>
<rect x="368.667" y="138.995" width="73.3333" height="68.3447" stroke="white"/>
<rect x="442" y="138.995" width="73.3333" height="68.3447" stroke="white"/>
<rect x="515.333" y="138.995" width="73.3333" height="68.3447" stroke="white"/>
<rect x="588.667" y="138.995" width="73.3333" height="68.3447" stroke="white"/>
<rect x="662" y="138.995" width="73.3333" height="68.3447" stroke="white"/>
<rect x="75.333" y="207.34" width="73.3333" height="68.3447" stroke="white"/>
<rect width="73" height="68.034" transform="matrix(-1 0 0 1 75 2.3064)" stroke="white"/>
<rect width="73" height="68.966" transform="matrix(-1 0 0 1 75 70.3404)" stroke="white"/>
<rect width="73" height="68.034" transform="matrix(-1 0 0 1 75 139.306)" stroke="white"/>
<rect width="73" height="68.034" transform="matrix(-1 0 0 1 75 207.34)" stroke="white"/>
<rect x="148.667" y="207.34" width="73.3333" height="68.3447" stroke="white"/>
<rect x="222" y="207.34" width="73.3333" height="68.3447" stroke="white"/>
<rect x="295.333" y="207.34" width="73.3333" height="68.3447" stroke="white"/>
<rect x="368.667" y="207.34" width="73.3333" height="68.3447" stroke="white"/>
<rect x="442" y="207.34" width="73.3333" height="68.3447" stroke="white"/>
<rect x="515.333" y="207.34" width="73.3333" height="68.3447" stroke="white"/>
<rect x="588.667" y="207.34" width="73.3333" height="68.3447" stroke="white"/>
<rect x="662" y="207.34" width="73.3333" height="68.3447" stroke="white"/>
<rect x="735.333" y="2.3064" width="73.3333" height="68.3447" stroke="white"/>
<rect x="808.667" y="2.3064" width="73.3333" height="68.3447" stroke="white"/>
<rect x="735.333" y="70.6517" width="73.3333" height="68.3447" stroke="white"/>
<rect x="808.667" y="70.6517" width="73.3333" height="68.3447" stroke="white"/>
<rect x="735.333" y="138.995" width="73.3333" height="68.3447" stroke="white"/>
<rect x="808.667" y="138.995" width="73.3333" height="68.3447" stroke="white"/>
<rect x="735.333" y="207.34" width="73.3333" height="68.3447" stroke="white"/>
<rect x="808.667" y="207.34" width="73.3333" height="68.3447" stroke="white"/>
<path d="M295 276.306L295 1.99991" stroke="white" stroke-width="4"/>
<path d="M589 276.306L589 1.99991" stroke="white" stroke-width="4"/>
<path d="M882 276.306L882 1.99991" stroke="white" stroke-width="4"/>
</svg>
