<svg width="939" height="92" viewBox="0 0 939 92" fill="none" xmlns="http://www.w3.org/2000/svg">
<path d="M31.6939 48.7291C31.6939 49.7958 31.4539 50.7504 30.9739 51.5931C30.4939 52.4358 29.7953 53.1078 28.8779 53.6091L30.3019 55.0491L29.2459 55.7371L27.6459 54.1211C26.7819 54.3878 25.8326 54.5211 24.7979 54.5211C22.6219 54.5211 20.9313 53.9878 19.7259 52.9211C18.5206 51.8438 17.9179 50.4464 17.9179 48.7291C17.9179 47.0118 18.5206 45.6198 19.7259 44.5531C20.9313 43.4758 22.6219 42.9371 24.7979 42.9371C26.9739 42.9371 28.6646 43.4758 29.8699 44.5531C31.0859 45.6198 31.6939 47.0118 31.6939 48.7291ZM24.7979 53.2091C25.4379 53.2091 26.0246 53.1451 26.5579 53.0171L25.4699 51.9291L26.5259 51.2251L27.8379 52.5531C28.5739 52.1691 29.1339 51.6464 29.5179 50.9851C29.9019 50.3131 30.0939 49.5611 30.0939 48.7291C30.0939 47.4171 29.6299 46.3451 28.7019 45.5131C27.7846 44.6704 26.4833 44.2491 24.7979 44.2491C23.1233 44.2491 21.8219 44.6704 20.8939 45.5131C19.9766 46.3451 19.5179 47.4171 19.5179 48.7291C19.5179 50.0411 19.9766 51.1184 20.8939 51.9611C21.8219 52.7931 23.1233 53.2091 24.7979 53.2091ZM36.6834 43.1291H37.8834V54.3291H36.3634V44.7771L33.1474 46.4731V45.0011L36.6834 43.1291Z" fill="white"/>
<path d="M323.756 48.7291C323.756 49.7958 323.516 50.7504 323.036 51.5931C322.556 52.4358 321.858 53.1078 320.94 53.6091L322.364 55.0491L321.308 55.7371L319.708 54.1211C318.844 54.3878 317.895 54.5211 316.86 54.5211C314.684 54.5211 312.994 53.9878 311.788 52.9211C310.583 51.8438 309.98 50.4464 309.98 48.7291C309.98 47.0118 310.583 45.6198 311.788 44.5531C312.994 43.4758 314.684 42.9371 316.86 42.9371C319.036 42.9371 320.727 43.4758 321.932 44.5531C323.148 45.6198 323.756 47.0118 323.756 48.7291ZM316.86 53.2091C317.5 53.2091 318.087 53.1451 318.62 53.0171L317.532 51.9291L318.588 51.2251L319.9 52.5531C320.636 52.1691 321.196 51.6464 321.58 50.9851C321.964 50.3131 322.156 49.5611 322.156 48.7291C322.156 47.4171 321.692 46.3451 320.764 45.5131C319.847 44.6704 318.546 44.2491 316.86 44.2491C315.186 44.2491 313.884 44.6704 312.956 45.5131C312.039 46.3451 311.58 47.4171 311.58 48.7291C311.58 50.0411 312.039 51.1184 312.956 51.9611C313.884 52.7931 315.186 53.2091 316.86 53.2091ZM327.226 53.0811H335.258V54.3291H324.89V53.1931L331.482 48.5531C332.069 48.1584 332.533 47.7691 332.874 47.3851C333.215 46.9904 333.386 46.5371 333.386 46.0251C333.386 45.4171 333.103 44.9584 332.538 44.6491C331.983 44.3398 331.258 44.1851 330.362 44.1851C328.122 44.1851 326.89 45.0811 326.666 46.8731L325.242 46.7771C325.359 45.4864 325.877 44.5264 326.794 43.8971C327.711 43.2571 328.906 42.9371 330.378 42.9371C331.743 42.9371 332.837 43.1984 333.658 43.7211C334.49 44.2438 334.906 44.9904 334.906 45.9611C334.906 46.6224 334.693 47.2251 334.266 47.7691C333.839 48.3024 333.199 48.8464 332.346 49.4011L327.226 53.0811Z" fill="white"/>
<path d="M616.514 48.7291C616.514 49.7958 616.274 50.7504 615.794 51.5931C615.314 52.4358 614.616 53.1078 613.698 53.6091L615.122 55.0491L614.066 55.7371L612.466 54.1211C611.602 54.3878 610.653 54.5211 609.618 54.5211C607.442 54.5211 605.752 53.9878 604.546 52.9211C603.341 51.8438 602.738 50.4464 602.738 48.7291C602.738 47.0118 603.341 45.6198 604.546 44.5531C605.752 43.4758 607.442 42.9371 609.618 42.9371C611.794 42.9371 613.485 43.4758 614.69 44.5531C615.906 45.6198 616.514 47.0118 616.514 48.7291ZM609.618 53.2091C610.258 53.2091 610.845 53.1451 611.378 53.0171L610.29 51.9291L611.346 51.2251L612.658 52.5531C613.394 52.1691 613.954 51.6464 614.338 50.9851C614.722 50.3131 614.914 49.5611 614.914 48.7291C614.914 47.4171 614.45 46.3451 613.522 45.5131C612.605 44.6704 611.304 44.2491 609.618 44.2491C607.944 44.2491 606.642 44.6704 605.714 45.5131C604.797 46.3451 604.338 47.4171 604.338 48.7291C604.338 50.0411 604.797 51.1184 605.714 51.9611C606.642 52.7931 607.944 53.2091 609.618 53.2091ZM623.264 47.5611C624.938 47.5611 626.218 47.8491 627.104 48.4251C627.989 49.0011 628.432 49.8331 628.432 50.9211C628.432 52.0944 627.941 52.9904 626.96 53.6091C625.978 54.2171 624.656 54.5211 622.992 54.5211C621.509 54.5211 620.293 54.2438 619.344 53.6891C618.405 53.1238 617.866 52.2918 617.728 51.1931L619.168 51.1131C619.285 51.8384 619.685 52.3824 620.368 52.7451C621.061 53.0971 621.936 53.2731 622.992 53.2731C624.154 53.2731 625.098 53.0651 625.824 52.6491C626.549 52.2331 626.912 51.6571 626.912 50.9211C626.912 50.2384 626.586 49.6944 625.936 49.2891C625.285 48.8731 624.341 48.6651 623.104 48.6651C622.346 48.6651 621.589 48.7291 620.832 48.8571V47.8011L625.856 44.3771H618.4V43.1291H628.032V44.2651L623.008 47.5771C623.061 47.5664 623.146 47.5611 623.264 47.5611Z" fill="white"/>
<path d="M910.944 48.7291C910.944 49.7958 910.704 50.7504 910.224 51.5931C909.744 52.4358 909.045 53.1078 908.128 53.6091L909.552 55.0491L908.496 55.7371L906.896 54.1211C906.032 54.3878 905.083 54.5211 904.048 54.5211C901.872 54.5211 900.181 53.9878 898.976 52.9211C897.771 51.8438 897.168 50.4464 897.168 48.7291C897.168 47.0118 897.771 45.6198 898.976 44.5531C900.181 43.4758 901.872 42.9371 904.048 42.9371C906.224 42.9371 907.915 43.4758 909.12 44.5531C910.336 45.6198 910.944 47.0118 910.944 48.7291ZM904.048 53.2091C904.688 53.2091 905.275 53.1451 905.808 53.0171L904.72 51.9291L905.776 51.2251L907.088 52.5531C907.824 52.1691 908.384 51.6464 908.768 50.9851C909.152 50.3131 909.344 49.5611 909.344 48.7291C909.344 47.4171 908.88 46.3451 907.952 45.5131C907.035 44.6704 905.733 44.2491 904.048 44.2491C902.373 44.2491 901.072 44.6704 900.144 45.5131C899.227 46.3451 898.768 47.4171 898.768 48.7291C898.768 50.0411 899.227 51.1184 900.144 51.9611C901.072 52.7931 902.373 53.2091 904.048 53.2091ZM921.725 50.4731H924.109V51.7211H921.725V54.3291H920.205V51.7211H912.237V50.5851L919.245 43.1291H921.725V50.4731ZM913.949 50.4731H920.205V43.8651L913.949 50.4731Z" fill="white"/>
</svg>
