<svg width="50" height="50" viewBox="0 0 50 50" fill="none" xmlns="http://www.w3.org/2000/svg">
<path d="M25 0C11.2345 0 0 11.2354 0 25C0 38.7655 11.2354 50 25 50C38.7655 50 50 38.7646 50 25C50 11.2345 38.7646 0 25 0ZM17.5833 4.21318C15.8733 6.39814 14.6392 9.10117 13.7869 11.7188H7.38496C9.95811 8.31436 13.4937 5.67676 17.5833 4.21318ZM5.51299 14.6475H12.9695C12.3168 17.4229 11.9315 20.4278 11.8391 23.5352H2.97949C3.18984 20.3411 4.08232 17.3308 5.51299 14.6475ZM2.97949 26.4648H11.8391C11.9304 29.5359 12.3081 32.5064 12.9471 35.2539H5.46133C4.06094 32.5962 3.1873 29.6202 2.97949 26.4648ZM7.31045 38.1836H13.7551C14.6112 40.8404 15.8566 43.5804 17.5833 45.7868C13.4544 44.3092 9.88965 41.6354 7.31045 38.1836ZM23.5352 46.8197C20.252 45.7069 18.018 41.4516 16.8474 38.1836H23.5352V46.8197ZM23.5352 35.2539H15.9587C15.2733 32.5448 14.8673 29.5666 14.7698 26.4648H23.5352V35.2539ZM23.5352 23.5352H14.7698C14.8685 20.396 15.2834 17.3836 15.9839 14.6484H23.5352V23.5352ZM23.5352 11.7188H16.8824C18.0542 8.48418 20.2778 4.28428 23.5352 3.18027V11.7188ZM42.615 11.7188H36.2131C35.361 9.10176 34.1269 6.39854 32.4167 4.21318C36.5063 5.67676 40.0419 8.31436 42.615 11.7188ZM26.4648 3.18027C29.7226 4.28447 31.9461 8.48496 33.1176 11.7188H26.4648V3.18027ZM26.4648 14.6484H34.0161C34.7165 17.3836 35.1315 20.396 35.2302 23.5352H26.4648V14.6484ZM26.4648 26.4639H35.2302C35.1327 29.5666 34.7267 32.5448 34.0413 35.2539H26.4648V26.4639ZM26.4648 46.8197V38.1826H33.1526C31.9828 41.4496 29.7489 45.7066 26.4648 46.8197ZM32.4167 45.7868C34.1436 43.5802 35.3889 40.84 36.2449 38.1826H42.6895C40.1104 41.6354 36.5456 44.3092 32.4167 45.7868ZM44.5387 35.2539H37.053C37.692 32.5064 38.0697 29.5359 38.161 26.4639H47.0206C46.8127 29.6202 45.9391 32.5962 44.5387 35.2539ZM47.0205 23.5352H38.1609C38.0685 20.4278 37.6832 17.4229 37.0305 14.6484H44.487C45.9177 17.3308 46.8102 20.3411 47.0205 23.5352Z" fill="white"/>
</svg>
