<?xml version="1.0" encoding="utf-8"?><svg viewBox="0 0 94 93" xmlns="http://www.w3.org/2000/svg" xmlns:xlink="http://www.w3.org/1999/xlink"><style>:root>svg{display:none}:root>svg:target{display:block}</style><svg viewBox="0 0 94 93" id="card-star-1" xmlns="http://www.w3.org/2000/svg"><path d="M42.922 10.138c1.289-3.482 6.214-3.482 7.503 0l8.17 22.078a4 4 0 0 0 2.363 2.363l22.078 8.17c3.482 1.288 3.482 6.214 0 7.502l-22.078 8.17a4 4 0 0 0-2.364 2.363l-8.169 22.078c-1.289 3.483-6.214 3.482-7.503 0l-8.17-22.078a4 4 0 0 0-2.363-2.363l-22.077-8.17c-3.483-1.288-3.483-6.214 0-7.502l22.077-8.17a4 4 0 0 0 2.364-2.363l8.17-22.078Z"/></svg><svg viewBox="0 0 53 52" id="card-star-2" xmlns="http://www.w3.org/2000/svg"><path d="M22.422 10.138c1.289-3.482 6.214-3.482 7.503 0l2.633 7.115a4 4 0 0 0 2.363 2.363l7.115 2.633c3.482 1.288 3.482 6.214 0 7.502l-7.115 2.633a4 4 0 0 0-2.363 2.363l-2.633 7.115c-1.289 3.482-6.214 3.482-7.503 0l-2.633-7.115a4 4 0 0 0-2.363-2.363l-7.114-2.633c-3.483-1.288-3.483-6.214 0-7.502l7.114-2.633a4 4 0 0 0 2.364-2.363l2.632-7.115Z"/></svg><svg viewBox="0 0 39 38" id="card-star-3" xmlns="http://www.w3.org/2000/svg"><path d="M15.422 10.138c1.289-3.482 6.214-3.482 7.503 0l.742 2.005a4 4 0 0 0 2.363 2.364l2.006.742c3.482 1.288 3.482 6.214 0 7.502l-2.006.742a4 4 0 0 0-2.363 2.364l-.742 2.005c-1.289 3.483-6.214 3.483-7.503 0l-.742-2.005a4 4 0 0 0-2.363-2.364l-2.005-.742c-3.483-1.288-3.483-6.214 0-7.502l2.005-.742a4 4 0 0 0 2.363-2.364l.742-2.005Z"/></svg></svg>